<svg width="260" height="84" viewBox="0 0 260 84" fill="none" xmlns="http://www.w3.org/2000/svg" role="img" aria-labelledby="title desc">
  <title id="title">Ola Quest</title>
  <desc id="desc">Minimal premium Ola Quest logo with a gold puzzle mark.</desc>
  <defs>
    <linearGradient id="gold" x1="8" y1="10" x2="72" y2="76" gradientUnits="userSpaceOnUse">
      <stop stop-color="#F0D38A"/>
      <stop offset="0.55" stop-color="#C9A95C"/>
      <stop offset="1" stop-color="#8C6B2D"/>
    </linearGradient>
  </defs>
  <rect x="7" y="7" width="70" height="70" rx="22" fill="#1E2025"/>
  <path d="M43.3 20.7c3.5-1.9 7.8.6 7.8 4.5v4.1h4.1c3.9 0 6.4 4.3 4.5 7.8l-2.4 4.4 2.4 4.4c1.9 3.5-.6 7.8-4.5 7.8h-4.1v4.1c0 3.9-4.3 6.4-7.8 4.5l-4.4-2.4-4.4 2.4c-3.5 1.9-7.8-.6-7.8-4.5v-4.1h-4.1c-3.9 0-6.4-4.3-4.5-7.8l2.4-4.4-2.4-4.4c-1.9-3.5.6-7.8 4.5-7.8h4.1v-4.1c0-3.9 4.3-6.4 7.8-4.5l4.4 2.4 4.4-2.4Z" fill="url(#gold)"/>
  <text x="94" y="43" font-family="Georgia, 'Times New Roman', serif" font-size="34" font-weight="700" fill="#1E2025">Ola</text>
  <text x="149" y="43" font-family="Georgia, 'Times New Roman', serif" font-size="34" font-weight="700" fill="#5C4BD8">Quest</text>
  <path d="M96 58h116" stroke="#C9A95C" stroke-width="3" stroke-linecap="round"/>
</svg>
